<svg width="54" height="54" viewBox="0 0 54 54" fill="none" xmlns="http://www.w3.org/2000/svg">
<path d="M48.3074 9.7875L45.2924 8.5275V28.845L50.7599 15.66C51.6824 13.365 50.6249 10.7325 48.3074 9.7875ZM4.43242 18.1125L15.5924 45C15.921 45.8181 16.4816 46.5222 17.2051 47.0259C17.9287 47.5296 18.7837 47.8108 19.6649 47.835C20.2499 47.835 20.8574 47.7225 21.4424 47.475L38.0249 40.6125C39.7124 39.915 40.7474 38.25 40.7924 36.585C40.8149 36 40.7024 35.3475 40.4999 34.7625L29.2499 7.875C28.933 7.05084 28.3747 6.34149 27.6481 5.8397C26.9215 5.33792 26.0604 5.06705 25.1774 5.0625C24.5924 5.0625 24.0074 5.1975 23.4449 5.4L6.88492 12.2625C5.78414 12.7133 4.90742 13.5827 4.44752 14.6798C3.98763 15.7768 3.98219 17.0115 4.43242 18.1125ZM40.7699 9.5625C40.7699 8.36903 40.2958 7.22443 39.4519 6.38052C38.608 5.53661 37.4634 5.0625 36.2699 5.0625H33.0074L40.7699 23.8275" fill="#242424"/>
</svg>
